<?xml version="1.0" encoding="UTF-8" standalone="no"?>
<!--
Copyright (C) 2009/2010/2011 Ulrich Apel.
This work is distributed under the conditions of the Creative Commons
Attribution-Share Alike 3.0 Licence. This means you are free:
* to Share - to copy, distribute and transmit the work
* to Remix - to adapt the work

Under the following conditions:
* Attribution. You must attribute the work by stating your use of KanjiVG in
  your own copyright header and linking to KanjiVG's website
  (http://kanjivg.tagaini.net)
* Share Alike. If you alter, transform, or build upon this work, you may
  distribute the resulting work only under the same or similar license to this
  one.

See http://creativecommons.org/licenses/by-sa/3.0/ for more details.
-->

<svg
   width="109"
   height="109"
   viewBox="0 0 109 109"
   version="1.1"
   id="svg5"
   sodipodi:docname="22189.svg"
   inkscape:version="1.3.2 (091e20e, 2023-11-25, custom)"
   xmlns:inkscape="http://www.inkscape.org/namespaces/inkscape"
   xmlns:sodipodi="http://sodipodi.sourceforge.net/DTD/sodipodi-0.dtd"
   xmlns="http://www.w3.org/2000/svg"
   xmlns:svg="http://www.w3.org/2000/svg"
   xmlns:kvg="http://kanjivg.tagaini.net">
  <defs
     id="defs5" />
  <sodipodi:namedview
     id="namedview5"
     pagecolor="#ffffff"
     bordercolor="#999999"
     borderopacity="1"
     inkscape:showpageshadow="2"
     inkscape:pageopacity="0"
     inkscape:pagecheckerboard="0"
     inkscape:deskcolor="#d1d1d1"
     inkscape:zoom="7.8440367"
     inkscape:cx="54.5"
     inkscape:cy="54.5"
     inkscape:window-width="1920"
     inkscape:window-height="1111"
     inkscape:window-x="-9"
     inkscape:window-y="-9"
     inkscape:window-maximized="1"
     inkscape:current-layer="svg5" />
  <g
     id="kvg:StrokePaths_0534a"
     style="fill:none;stroke:#000000;stroke-width:3;stroke-linecap:round;stroke-linejoin:round;">
    <g
       id="kvg:0534a"
       kvg:element="半">
      <g
         id="kvg:0534a-g1"
         kvg:element="丶"
         kvg:radical="nelson"
         transform="matrix(0.80234295,0,0,1,10.624952,0.6374269)"
         style="stroke-width:3.3492">
        <path
           id="kvg:0534a-s1"
           kvg:type="㇔"
           d="m 26.02,22.58 c 3.9,2.41 10.07,9.89 11.04,13.63"
           style="stroke-width:3.3492" />
      </g>
      <path
         id="kvg:0534a-s2"
         kvg:type="㇒"
         d="m 77.01883,19.387427 c 0.128375,1.19 -0.312913,2.25 -0.810366,3.2 -2.062021,3.96 -5.744776,8.76 -10.125568,12.92"
         style="stroke-width:3" />
      <g
         id="kvg:0534a-g2"
         kvg:element="二"
         kvg:part="1"
         transform="matrix(1,0,0,1.1571968,0,-15.326713)"
         style="stroke-width:2.7888">
        <path
           id="kvg:0534a-s3"
           kvg:type="㇐"
           d="m 28.3,48.57 c 1.78,0.38 5.07,0.21 6.83,0.03 10.62,-1.09 29.12,-2.99 38.5,-3.67 2.97,-0.22 4.75,-0.17 6.24,0.02"
           style="stroke-width:2.7888" />
      </g>
      <g
         id="kvg:0534a-g3"
         kvg:element="十"
         kvg:radical="tradit"
         transform="matrix(1,0,0,1.1571968,0,-15.326713)"
         style="stroke-width:2.7888">
        <g
           id="kvg:0534a-g4"
           kvg:element="二"
           kvg:part="2"
           style="stroke-width:2.7888">
          <path
             id="kvg:0534a-s4"
             kvg:type="㇐"
             d="m 13.5,67.22 c 2.25,0.91 6.85,1.03 9.22,0.78 18.28,-1.87 40.4,-3.58 62.61,-4.38 4,-0.14 6.41,0.25 8.42,0.52"
             style="stroke-width:2.7888" />
        </g>
        <path
           id="kvg:0534a-s5"
           kvg:type="㇑"
           d="m 52.67,46.5 c 1.23,1.23 1.85,3.17 1.85,4.4 0,7.6 0.1,54.35 0.1,40.1 0,3.18 -0.07,5.46 -0.11,6.5"
           style="stroke-width:2.7888" />
      </g>
    </g>
  </g>
  <g
     id="kvg:StrokeNumbers_0534a"
     style="font-size:8;fill:#808080">
    <text
       transform="matrix(1 0 0 1 19.50 23.50)"
       id="text1">1</text>
    <text
       transform="matrix(1 0 0 1 73.50 18.50)"
       id="text2">2</text>
    <text
       transform="matrix(1 0 0 1 21.50 49.50)"
       id="text3">3</text>
    <text
       transform="matrix(1 0 0 1 5.50 68.50)"
       id="text4">4</text>
    <text
       transform="matrix(1 0 0 1 44.50 12.50)"
       id="text5">5</text>
  </g>
</svg>
